HIERARCHY
ROOT Character1_Hips
{
  OFFSET 70.916 93.6953 -99.6988
  CHANNELS 6 Xposition Yposition Zposition Zrotation Xrotation Yrotation
  JOINT Character1_Spine
  {
    OFFSET 0 8.754 -1.339
    CHANNELS 3 Zrotation Xrotation Yrotation
    JOINT Character1_Spine1
    {
      OFFSET 0 10.855 -0.645
      CHANNELS 3 Zrotation Xrotation Yrotation
      JOINT Character1_LeftShoulder
      {
        OFFSET 1.467 27.745 1.178
        CHANNELS 3 Zrotation Xrotation Yrotation
        JOINT Character1_LeftArm
        {
          OFFSET 18.486 -1.858 0.275
          CHANNELS 3 Zrotation Xrotation Yrotation
          JOINT Character1_LeftForeArm
          {
            OFFSET 31.798 2.36 2.921
            CHANNELS 3 Zrotation Xrotation Yrotation
            JOINT Character1_LeftHand
            {
              OFFSET 29.001 1.642 2.112
              CHANNELS 3 Zrotation Xrotation Yrotation
              End Site
              {
                OFFSET 7.3734 -1.0302 1.64982
              }
            }
            JOINT ForeArmBoxL
            {
              OFFSET 14.9879 1.12959 0.0233554
              CHANNELS 3 Zrotation Xrotation Yrotation
              End Site
              {
                OFFSET 0 0 0
              }
            }
          }
          JOINT ArmBoxL
          {
            OFFSET 15.8286 1.72374 1.18509
            CHANNELS 3 Zrotation Xrotation Yrotation
            End Site
            {
              OFFSET 0 0 0
            }
          }
        }
        JOINT ShoulderBoxL
        {
          OFFSET 8.34438 1.0846 -0.108247
          CHANNELS 3 Zrotation Xrotation Yrotation
          End Site
          {
            OFFSET 0 0 0
          }
        }
      }
      JOINT Character1_RightShoulder
      {
        OFFSET -1.467 27.745 1.178
        CHANNELS 3 Zrotation Xrotation Yrotation
        JOINT Character1_RightArm
        {
          OFFSET -18.486 -1.858 0.275
          CHANNELS 3 Zrotation Xrotation Yrotation
          JOINT Character1_RightForeArm
          {
            OFFSET -31.798 2.35964 2.92082
            CHANNELS 3 Zrotation Xrotation Yrotation
            JOINT Character1_RightHand
            {
              OFFSET -29.0007 1.64167 2.112
              CHANNELS 3 Zrotation Xrotation Yrotation
              End Site
              {
                OFFSET -7.37366 -1.0295 1.65001
              }
            }
            JOINT ForeArmBoxR
            {
              OFFSET -14.9879 1.12995 0.0235372
              CHANNELS 3 Zrotation Xrotation Yrotation
              End Site
              {
                OFFSET 0 0 0
              }
            }
          }
          JOINT ArmBoxR
          {
            OFFSET -15.8286 1.72374 1.18509
            CHANNELS 3 Zrotation Xrotation Yrotation
            End Site
            {
              OFFSET 0 0 0
            }
          }
        }
        JOINT ShoulderBoxR
        {
          OFFSET -8.34438 1.0846 -0.108247
          CHANNELS 3 Zrotation Xrotation Yrotation
          End Site
          {
            OFFSET 0 0 0
          }
        }
      }
      JOINT Character1_Neck
      {
        OFFSET 0 30.836 0.626
        CHANNELS 3 Zrotation Xrotation Yrotation
        JOINT Character1_Head
        {
          OFFSET 0 8.074 3.498
          CHANNELS 3 Zrotation Xrotation Yrotation
          End Site
          {
            OFFSET 0 8.75051 -0.3664
          }
        }
        JOINT NeckBox
        {
          OFFSET 0 4.52749 1.86245
          CHANNELS 3 Zrotation Xrotation Yrotation
          End Site
          {
            OFFSET 0 0 0
          }
        }
      }
      JOINT TorsoBox
      {
        OFFSET 0 12.7155 1.00402
        CHANNELS 3 Zrotation Xrotation Yrotation
        End Site
        {
          OFFSET 0 0 0
        }
      }
    }
    JOINT SpineBox
    {
      OFFSET 0 5.28258 0.326123
      CHANNELS 3 Zrotation Xrotation Yrotation
      End Site
      {
        OFFSET 0 0 0
      }
    }
  }
  JOINT Character1_RightUpLeg
  {
    OFFSET -9.035 -4.63425 1.845
    CHANNELS 3 Zrotation Xrotation Yrotation
    JOINT Character1_RightLeg
    {
      OFFSET -0.919521 -40.345 1.155
      CHANNELS 3 Zrotation Xrotation Yrotation
      JOINT Character1_RightFoot
      {
        OFFSET 1.95452 -45.2655 -4.18888
        CHANNELS 3 Zrotation Xrotation Yrotation
        JOINT Character1_RightToeBase
        {
          OFFSET 1.87056 -6.69517 14.7145
          CHANNELS 3 Zrotation Xrotation Yrotation
          End Site
          {
            OFFSET 0 0 0
          }
        }
        JOINT TalusBoxR
        {
          OFFSET -0.257548 -3.72327 1.77314
          CHANNELS 3 Zrotation Xrotation Yrotation
          End Site
          {
            OFFSET 0 0 0
          }
        }
        JOINT FootPinkyBoxR
        {
          OFFSET -4.44001 -5.06132 12.2866
          CHANNELS 3 Zrotation Xrotation Yrotation
          End Site
          {
            OFFSET 0 0 0
          }
        }
        JOINT FootThumbBoxR
        {
          OFFSET 0.350101 -5.07916 13.5666
          CHANNELS 3 Zrotation Xrotation Yrotation
          End Site
          {
            OFFSET 0 0 0
          }
        }
      }
      JOINT TibiaBoxR
      {
        OFFSET 0.679521 -22.8458 -3.405
        CHANNELS 3 Zrotation Xrotation Yrotation
        End Site
        {
          OFFSET 0 0 0
        }
      }
    }
    JOINT FemurBoxR
    {
      OFFSET -0.557975 -20.9557 -1.11465
      CHANNELS 3 Zrotation Xrotation Yrotation
      End Site
      {
        OFFSET 0 0 0
      }
    }
  }
  JOINT Character1_LeftUpLeg
  {
    OFFSET 9.035 -4.63425 1.845
    CHANNELS 3 Zrotation Xrotation Yrotation
    JOINT Character1_LeftLeg
    {
      OFFSET 0.919521 -40.345 1.155
      CHANNELS 3 Zrotation Xrotation Yrotation
      JOINT Character1_LeftFoot
      {
        OFFSET -1.95452 -45.2655 -4.18888
        CHANNELS 3 Zrotation Xrotation Yrotation
        JOINT Character1_LeftToeBase
        {
          OFFSET -1.87056 -6.69517 14.7145
          CHANNELS 3 Zrotation Xrotation Yrotation
          End Site
          {
            OFFSET 0 0 0
          }
        }
        JOINT FootThumbBoxL
        {
          OFFSET -0.350101 -5.07916 13.5666
          CHANNELS 3 Zrotation Xrotation Yrotation
          End Site
          {
            OFFSET 0 0 0
          }
        }
        JOINT FootPinkyBoxL
        {
          OFFSET 4.44001 -5.06132 12.2866
          CHANNELS 3 Zrotation Xrotation Yrotation
          End Site
          {
            OFFSET 0 0 0
          }
        }
        JOINT TalusBoxL
        {
          OFFSET 0.257548 -3.72327 1.77314
          CHANNELS 3 Zrotation Xrotation Yrotation
          End Site
          {
            OFFSET 0 0 0
          }
        }
      }
      JOINT TibiaBoxL
      {
        OFFSET -0.679521 -22.8458 -3.405
        CHANNELS 3 Zrotation Xrotation Yrotation
        End Site
        {
          OFFSET 0 0 0
        }
      }
    }
    JOINT FemurBoxL
    {
      OFFSET 0.557975 -20.9557 -1.11465
      CHANNELS 3 Zrotation Xrotation Yrotation
      End Site
      {
        OFFSET 0 0 0
      }
    }
  }
  JOINT PelvisBox
  {
    OFFSET 0 0.0930822 -0.0838296
    CHANNELS 3 Zrotation Xrotation Yrotation
    End Site
    {
      OFFSET 0 0 0
    }
  }
}
MOTION
Frames:	8
Frame Time:	0.00833333
69.1729 93.667 -98.35 10.6275 0.351103 -63.614 3.47873e-16 2.83268e-15 -0 -1.97985 -5.57525 6.1841 -2.18166e-07 1.88098e-07 1.7046e-06 -165.266 56.9758 80.7642 56.6564 82.8761 26.5439 -0.391514 -13.5549 19.7756 -13.2576 -68.9783 -17.331 -6.92027 -72.5829 -11.2678 0.27423 -0.0473218 3.14463 -2.18166e-07 1.88098e-07 1.7046e-06 93.2064 -24.0831 -38.8839 7.92529 -3.46251 76.0038 -1.51183 3.63733 3.16896 -166.742 68.9783 162.669 -173.08 72.5829 168.732 179.726 0.0473218 -176.855 -2.98177e-16 -1.98785e-16 1.90833e-14 -4.47266e-16 -3.72721e-16 1.27222e-14 1.32457 3.71867 13.2096 2.05149e-16 0.528321 1.13206e-14 -3.08861 -7.83714 4.64147 -1.14694 -0.613664 -6.56606 -0.157918 -0.0182592 0.091459 -2.67276 -14.783 -5.38232 -2.27897 -10.8638 0.746488 -178.531 -1.41374 -167.997 -179.276 -0.600381 -160.082 179.447 -1.12556 -169.995 -178 -5 180 179.002 0.985149 179.879 1.16911 -1.45555 2.30074 -1.40577 -6.96129 -1.08267 -6.1904 -3.00083 -7.34798 -0.111425 -11.3427 -1.06099 0.553385 1.12556 10.0051 -0.724387 0.600381 19.9179 -1.46875 1.41374 12.0028 -2 5 -0 0.99792 -0.985149 -0.120973 2.29091e-16 2.07856e-15 -0 
69.1719 93.666 -98.3528 10.6152 0.383548 -63.6148 7.45443e-16 -2.83268e-15 -6.36111e-15 0.99834 -5.93744 1.35021 -2.18166e-07 1.88098e-07 1.7046e-06 -162.919 55.5018 76.2941 57.9815 82.4262 24.8218 -0.325732 -13.8196 20.3529 -13.2576 -68.9783 -17.331 -6.92027 -72.5829 -11.2678 0.27423 -0.0473218 3.14463 -2.18166e-07 1.88098e-07 1.7046e-06 91.953 -21.5081 -38.8903 7.50763 -3.05957 76.308 -1.38832 3.59694 2.8503 -166.742 68.9783 162.669 -173.08 72.5829 168.732 179.726 0.0473218 -176.855 -3.97569e-16 9.93923e-16 -3.18055e-15 0 0 -0 -2.8879 2.01332 14.9821 -2.60962e-17 0.528321 2.83015e-15 -2.34688 -7.96945 0.675677 -1.11238 -0.639072 -6.5193 -0.157668 0.0336807 0.0908058 -2.67653 -14.9041 -5.31813 -2.26078 -10.7752 0.74208 -178.531 -1.41374 -167.997 -179.276 -0.600381 -160.082 179.447 -1.12556 -169.995 -178 -5 180 179.002 0.985149 179.879 1.21429 -1.4831 2.30374 -1.41233 -6.92946 -1.08672 -6.1381 -2.90563 -7.1948 -0.0928028 -10.3426 -0.965239 0.553385 1.12556 10.0051 -0.724387 0.600381 19.9179 -1.46875 1.41374 12.0028 -2 5 6.33219e-15 0.99792 -0.985149 -0.120973 -1.14545e-16 -1.14868e-15 -4.88727e-15 
69.1747 93.6667 -98.3533 10.6394 0.382297 -63.5931 -1.19271e-15 -7.70291e-16 6.36111e-15 -1.64316 -5.46859 5.8632 -2.18166e-07 1.88098e-07 1.7046e-06 -164.97 56.9747 80.235 56.3872 82.9566 26.7518 -0.363546 -13.6947 20.0383 -13.2576 -68.9783 -17.331 -6.92027 -72.5829 -11.2678 0.27423 -0.0473218 3.14463 -2.18166e-07 1.88098e-07 1.7046e-06 93.1125 -23.5146 -38.868 7.84552 -3.39798 76.0091 -1.51394 3.63738 3.17457 -166.742 68.9783 162.669 -173.08 72.5829 168.732 179.726 0.0473218 -176.855 2.98177e-16 8.44835e-16 -0 2.98177e-16 9.93923e-16 -0 -0.378916 1.18736 13.6432 1.76877e-16 0.528321 -0 -2.99679 -7.80442 4.3695 -1.13866 -0.659234 -6.67448 -0.157568 0.0580103 0.0907292 -2.62615 -14.9206 -5.21231 -2.29807 -10.9564 0.751038 -178.531 -1.41374 -167.997 -179.276 -0.600381 -160.082 179.447 -1.12556 -169.995 -178 -5 180 179.002 0.985149 179.879 1.18439 -1.46405 2.27884 -1.41217 -6.99894 -1.08562 -6.11948 -2.8471 -7.10593 -0.090264 -10.1958 -0.951166 0.553385 1.12556 10.0051 -0.724387 0.600381 19.9179 -1.46875 1.41374 12.0028 -2 5 -3.1661e-15 0.99792 -0.985149 -0.120973 -1.14545e-15 -2.48881e-15 4.88727e-15 
69.1774 93.6636 -98.3582 10.6713 0.435829 -63.5705 -1.09332e-15 -3.72721e-16 -0 0.76497 -5.97866 1.65378 -2.18166e-07 1.88098e-07 1.7046e-06 -162.702 55.4728 76.1574 57.8954 82.4591 24.9624 -0.310002 -13.939 20.516 -13.2576 -68.9783 -17.331 -6.92027 -72.5829 -11.2678 0.27423 -0.0473218 3.14463 -2.18166e-07 1.88098e-07 1.7046e-06 92.0876 -21.3071 -38.9813 7.55427 -3.11437 76.2315 -1.22261 3.54033 2.42212 -166.742 68.9783 162.669 -173.08 72.5829 168.732 179.726 0.0473218 -176.855 -1.59028e-15 -1.19271e-15 -0 -3.97569e-16 5.96354e-16 -0 -2.6598 2.15827 14.9456 -6.81411e-16 0.528321 -2.83015e-15 -2.31421 -8.07616 0.93507 -1.11003 -0.713937 -6.77714 -0.157465 0.054699 0.0907608 -2.61826 -14.8812 -5.20904 -2.3945 -11.4251 0.773639 -178.531 -1.41374 -167.997 -179.276 -0.600381 -160.082 179.447 -1.12556 -169.995 -178 -5 -180 179.002 0.985149 179.879 1.20493 -1.52845 2.25581 -1.41491 -6.99642 -1.08515 -6.13358 -2.84508 -7.17478 -0.100152 -10.7477 -1.00394 0.553385 1.12556 10.0051 -0.724387 0.600381 19.9179 -1.46875 1.41374 12.0028 -2 5 -0 0.99792 -0.985149 -0.120973 -4.58182e-16 4.64942e-16 -0 
69.1759 93.6612 -98.3596 10.6585 0.467755 -63.5783 6.95746e-16 -7.70291e-16 -0 -1.94268 -5.47783 6.30343 -2.18166e-07 1.88098e-07 1.7046e-06 -164.652 56.9644 80.0032 56.7287 82.8554 26.5538 -0.349066 -13.8743 20.228 -13.2576 -68.9783 -17.331 -6.92027 -72.5829 -11.2678 0.27423 -0.0473218 3.14463 -2.18166e-07 1.88098e-07 1.7046e-06 93.2266 -23.6726 -38.9246 7.84536 -3.41167 75.9535 -1.49582 3.63071 3.12806 -166.742 68.9783 162.669 -173.08 72.5829 168.732 179.726 0.0473218 -176.855 1.2424e-16 -5.96354e-16 6.36111e-15 5.2181e-16 9.69075e-16 -3.18055e-15 0.121814 1.40356 13.5683 -2.95398e-16 0.528321 5.6603e-15 -2.92837 -7.82306 4.7483 -1.06831 -0.749499 -6.65275 -0.157478 0.099272 0.0908918 -2.66636 -14.9003 -5.29343 -2.43084 -11.6017 0.782018 -178.531 -1.41374 -167.997 -179.276 -0.600381 -160.082 179.447 -1.12556 -169.995 -178 -5 -180 179.002 0.985149 179.879 1.26501 -1.60099 2.26986 -1.42554 -6.88995 -1.09224 -6.1513 -2.9758 -7.24483 -0.0976674 -10.6101 -0.990808 0.553385 1.12556 10.0051 -0.724387 0.600381 19.9179 -1.46875 1.41374 12.0028 -2 5 -0 0.99792 -0.985149 -0.120973 6.10909e-16 -1.50422e-15 -0 
69.1708 93.6638 -98.3467 10.6112 0.287442 -63.645 8.94531e-16 -5.71506e-16 -0 0.533678 -5.86616 2.07501 -2.18166e-07 1.88098e-07 1.7046e-06 -162.701 55.5309 76.2838 58.0962 82.3883 24.7727 -0.292096 -14.0597 20.6917 -13.2576 -68.9783 -17.331 -6.92027 -72.5829 -11.2678 0.27423 -0.0473218 3.14463 -2.18166e-07 1.88098e-07 1.7046e-06 92.184 -21.589 -39.0572 7.49009 -3.08223 76.1541 -1.64778 3.67961 3.51948 -166.742 68.9783 162.669 -173.08 72.5829 168.732 179.726 0.0473218 -176.855 3.97569e-16 1.59028e-15 6.36111e-15 -4.96564e-31 2.98177e-15 9.54166e-15 -1.28693 4.59482 14.4514 -4.05946e-16 0.528321 5.6603e-15 -2.48114 -7.89992 1.27233 -1.2221 -0.648755 -6.54193 -0.15755 0.156717 0.0911129 -2.67271 -14.9417 -5.29691 -2.39332 -11.4123 0.774363 -178.531 -1.41374 -167.997 -179.276 -0.600381 -160.082 179.447 -1.12556 -169.995 -178 -5 180 179.002 0.985149 179.879 1.12291 -1.43826 2.33478 -1.43595 -6.92675 -1.09743 -6.17126 -3.04419 -7.31562 -0.0834578 -9.79859 -0.913395 0.553385 1.12556 10.0051 -0.724387 0.600381 19.9179 -1.46875 1.41374 12.0028 -2 5 3.1661e-15 0.99792 -0.985149 -0.120973 5.72727e-16 -6.0169e-16 -4.88727e-15 
69.1698 93.6646 -98.34 10.6056 0.069959 -63.6971 -3.23025e-16 4.16827e-15 -0 -2.21252 -5.3797 6.44694 -2.18166e-07 1.88098e-07 1.7046e-06 -164.764 56.9865 80.2564 56.8139 82.8275 26.3966 -0.344556 -13.8674 20.254 -13.2576 -68.9783 -17.331 -6.92027 -72.5829 -11.2678 0.27423 -0.0473218 3.14463 -2.18166e-07 1.88098e-07 1.7046e-06 93.3939 -23.9854 -38.8857 7.74352 -3.37124 75.7889 -1.89227 3.75374 4.14838 -166.742 68.9783 162.669 -173.08 72.5829 168.732 179.726 0.0473218 -176.855 1.98785e-16 -8.69683e-16 -0 -4.47266e-16 4.47266e-16 -6.36111e-15 1.75975 4.4511 13.0581 -4.86411e-16 0.528321 -0 -3.34165 -7.63631 4.84119 -1.44073 -0.558808 -6.54967 -0.157661 0.214929 0.0914151 -2.6522 -15.0056 -5.25047 -2.37078 -11.3096 0.768216 -178.531 -1.41374 -167.997 -179.276 -0.600381 -160.082 179.447 -1.12556 -169.995 -178 -5 180 179.002 0.985149 179.879 0.904423 -1.27527 2.3818 -1.44799 -6.99945 -1.10329 -6.17272 -2.98851 -7.37017 -0.0923389 -10.315 -0.962573 0.553385 1.12556 10.0051 -0.724387 0.600381 19.9179 -1.46875 1.41374 12.0028 -2 5 -3.1661e-15 0.99792 -0.985149 -0.120973 -6.20454e-16 4.51267e-15 4.88727e-15 
69.1742 93.6595 -98.3471 10.6312 0.106551 -63.6296 1.3418e-15 1.67725e-16 -0 0.491213 -5.79889 1.80845 -2.18166e-07 1.88098e-07 1.7046e-06 -162.719 55.5432 76.3257 58.365 82.293 24.5463 -0.308832 -13.991 20.5498 -13.2576 -68.9783 -17.331 -6.92027 -72.5829 -11.2678 0.27423 -0.0473218 3.14463 -2.18166e-07 1.88098e-07 1.7046e-06 92.2046 -22.052 -38.898 7.35673 -2.97548 76.1623 -1.4847 3.62559 3.09964 -166.742 68.9783 162.669 -173.08 72.5829 168.732 179.726 0.0473218 -176.855 -1.98785e-15 1.98785e-16 -9.54166e-15 7.95139e-16 3.97569e-16 -9.54166e-15 -1.11524 5.33041 14.4475 -1.74267e-15 0.528321 -2.83015e-15 -2.68168 -7.8678 1.04557 -1.4101 -0.616953 -6.61113 -0.157766 0.246702 0.0917891 -2.68299 -14.9507 -5.36098 -2.43028 -11.5989 0.781936 -178.531 -1.41374 -167.997 -179.276 -0.600381 -160.082 179.447 -1.12556 -169.995 -178 -5 180 179.002 0.985149 179.879 0.937618 -1.35252 2.31841 -1.45992 -6.95453 -1.10903 -6.17359 -3.0656 -7.37623 -0.116744 -11.6144 -1.08714 0.553385 1.12556 10.0051 -0.724387 0.600381 19.9179 -1.46875 1.41374 12.0028 -2 5 -0 0.99792 -0.985149 -0.120973 6.10909e-16 2.73495e-16 -4.88727e-15 
